<?xml version="1.0" encoding="utf-8"?>
<!-- Generator: Adobe Illustrator 18.1.0, SVG Export Plug-In . SVG Version: 6.00 Build 0)  -->
<svg version="1.1" xmlns="http://www.w3.org/2000/svg" xmlns:xlink="http://www.w3.org/1999/xlink" x="0px" y="0px"
	 viewBox="208 134 1439 734" enable-background="new 208 134 1439 734" xml:space="preserve">
<filter  id="noise">
	<feTurbulence  type="fractalNoise" fill="#F00" numOctaves="3" in="fillPaint" baseFrequency="0.7" stitchTiles="stitch">
		</feTurbulence>
	<feComponentTransfer>
		<feFuncR  type="linear" slope="2" intercept="-.5"></feFuncR>
		<feFuncG  type="linear" slope="2" intercept="-.5"></feFuncG>
		<feFuncB  type="linear" slope="2" intercept="-.5"></feFuncB>
	</feComponentTransfer>
	
		<feColorMatrix  type="matrix" values="0.3333 0.3333 0.3333 0 0   0.3333 0.3333 0.3333 0 0   0.3333 0.3333 0.3333 0 0   0 0 0 1 0">
		</feColorMatrix>
</filter>
<g id="Layer_1">
	<g>
		<path fill="#FFFFFF" stroke="#FFFFFF" d="M149,74l-19,279l19-165V74z"/>
		<path fill="#FFFFFF" stroke="#FFFFFF" d="M149,74v114l104,5L149,74z"/>
		<path fill="#FEFEFE" stroke="#FEFEFE" d="M149,74l104,119l24-122L149,74z"/>
		<path fill="#FCFCFC" stroke="#FCFCFC" d="M149,74l128-3l142-24L149,74z"/>
		<path fill="#FBFBFB" stroke="#FBFBFB" d="M277,71l-24,122l135-76L277,71z"/>
		<path fill="#F9F9F9" stroke="#F9F9F9" d="M277,71l111,46l31-70L277,71z"/>
		<path fill="#FAFAFA" stroke="#FAFAFA" d="M388,117l-135,76l142-5L388,117z"/>
		<path fill="#F5F5F5" stroke="#F5F5F5" d="M388,117l7,71l98-10L388,117z"/>
		<path fill="#F5F5F5" stroke="#F5F5F5" d="M388,117l105,61L419,47L388,117z"/>
		<path fill="#F1F1F1" stroke="#F1F1F1" d="M419,47l74,131l86-120L419,47z"/>
		<path fill="#DEDEDE" stroke="#DEDEDE" d="M419,47l160,11l676-11H419z"/>
		<path fill="#EEEEEE" stroke="#EEEEEE" d="M579,58l-86,120l71,18L579,58z"/>
		<path fill="#EAEAEA" stroke="#EAEAEA" d="M579,58l-15,138l72-101L579,58z"/>
		<path fill="#E3E3E3" stroke="#E3E3E3" d="M579,58l57,37l195,23L579,58z"/>
		<path fill="#DADADA" stroke="#DADADA" d="M579,58l252,60l122-21L579,58z"/>
		<path fill="#CFCFCF" stroke="#CFCFCF" d="M579,58l374,39l192-29L579,58z"/>
		<path fill="#C4C4C4" stroke="#C4C4C4" d="M579,58l566,10l110-21L579,58z"/>
		<path fill="#E7E7E7" stroke="#E7E7E7" d="M636,95l-72,101l127-47L636,95z"/>
		<path fill="#E3E3E3" stroke="#E3E3E3" d="M636,95l55,54l29-25L636,95z"/>
		<path fill="#E0E0E0" stroke="#E0E0E0" d="M636,95l84,29l111-6L636,95z"/>
		<path fill="#E1E1E1" stroke="#E1E1E1" d="M720,124l-29,25l40,38L720,124z"/>
		<path fill="#DDDDDD" stroke="#DDDDDD" d="M720,124l11,63l100-69L720,124z"/>
		<path fill="#D7D7D7" stroke="#D7D7D7" d="M831,118l-100,69l142,28L831,118z"/>
		<path fill="#CFCFCF" stroke="#CFCFCF" d="M831,118l42,97l76-69L831,118z"/>
		<path fill="#CDCDCD" stroke="#CDCDCD" d="M831,118l118,28l4-49L831,118z"/>
		<path fill="#C6C6C6" stroke="#C6C6C6" d="M953,97l-4,49l87-51L953,97z"/>
		<path fill="#BFBFBF" stroke="#BFBFBF" d="M953,97l83-2l109-27L953,97z"/>
		<path fill="#C2C2C2" stroke="#C2C2C2" d="M1036,95l-87,51l120,5L1036,95z"/>
		<path fill="#BCBCBC" stroke="#BCBCBC" d="M1036,95l33,56l76-83L1036,95z"/>
		<path fill="#B7B7B7" stroke="#B7B7B7" d="M1145,68l-76,83l114,2L1145,68z"/>
		<path fill="#B1B1B1" stroke="#B1B1B1" d="M1145,68l38,85l72-106L1145,68z"/>
		<path fill="#ADADAD" stroke="#ADADAD" d="M1255,47l-72,106l108,52L1255,47z"/>
		<path fill="#A8A8A8" stroke="#A8A8A8" d="M1255,47l36,158l37-142L1255,47z"/>
		<path fill="#9A9A9A" stroke="#9A9A9A" d="M1255,47l73,16h311L1255,47z"/>
		<path fill="#A3A3A3" stroke="#A3A3A3" d="M1328,63l-37,142l78,7L1328,63z"/>
		<path fill="#9D9D9D" stroke="#9D9D9D" d="M1328,63l41,149l73-14L1328,63z"/>
		<path fill="#989898" stroke="#989898" d="M1328,63l114,135l49-98L1328,63z"/>
		<path fill="#909090" stroke="#909090" d="M1328,63l163,37l148-37H1328z"/>
		<path fill="#8D8D8D" stroke="#8D8D8D" d="M1491,100l-49,98l147-8L1491,100z"/>
		<path fill="#888888" stroke="#888888" d="M1491,100l98,90l-33-84L1491,100z"/>
		<path fill="#868686" stroke="#868686" d="M1491,100l65,6l83-43L1491,100z"/>
		<path fill="#828282" stroke="#828282" d="M1556,106l33,84l61-42L1556,106z"/>
		<path fill="#808080" stroke="#808080" d="M1556,106l94,42l-11-85L1556,106z"/>
		<path fill="#808080" stroke="#808080" d="M1639,63l11,85l85-42L1639,63z"/>
		<path fill="#808080" stroke="#808080" d="M1735,106l-85,42l139,10L1735,106z"/>
		<path fill="#FFFFFF" stroke="#FFFFFF" d="M149,188l-19,165l34-101L149,188z"/>
		<path fill="#FFFFFF" stroke="#FFFFFF" d="M149,188l15,64l89-59L149,188z"/>
		<path fill="#FEFEFE" stroke="#FEFEFE" d="M253,193l-89,59l100,23L253,193z"/>
		<path fill="#FBFBFB" stroke="#FBFBFB" d="M253,193l11,82l122-26L253,193z"/>
		<path fill="#FAFAFA" stroke="#FAFAFA" d="M253,193l133,56l9-61L253,193z"/>
		<path fill="#F5F5F5" stroke="#F5F5F5" d="M395,188l-9,61l107-71L395,188z"/>
		<path fill="#F4F4F4" stroke="#F4F4F4" d="M493,178l-107,71l61,59L493,178z"/>
		<path fill="#F0F0F0" stroke="#F0F0F0" d="M493,178l-46,130l126-7L493,178z"/>
		<path fill="#EEEEEE" stroke="#EEEEEE" d="M493,178l80,123l-9-105L493,178z"/>
		<path fill="#EAEAEA" stroke="#EAEAEA" d="M564,196l9,105l81-27L564,196z"/>
		<path fill="#E7E7E7" stroke="#E7E7E7" d="M564,196l90,78l37-125L564,196z"/>
		<path fill="#E3E3E3" stroke="#E3E3E3" d="M691,149l-37,125l77-87L691,149z"/>
		<path fill="#E0E0E0" stroke="#E0E0E0" d="M731,187l-77,87l121-6L731,187z"/>
		<path fill="#D9D9D9" stroke="#D9D9D9" d="M731,187l44,81l98-53L731,187z"/>
		<path fill="#D3D3D3" stroke="#D3D3D3" d="M873,215l-98,53l118,45L873,215z"/>
		<path fill="#CECECE" stroke="#CECECE" d="M873,215l20,98l47-60L873,215z"/>
		<path fill="#CBCBCB" stroke="#CBCBCB" d="M873,215l67,38l9-107L873,215z"/>
		<path fill="#C5C5C5" stroke="#C5C5C5" d="M949,146l-9,107l129-102L949,146z"/>
		<path fill="#C3C3C3" stroke="#C3C3C3" d="M1069,151L940,253l86,49L1069,151z"/>
		<path fill="#BDBDBD" stroke="#BDBDBD" d="M1069,151l-43,151l100-18L1069,151z"/>
		<path fill="#B8B8B8" stroke="#B8B8B8" d="M1069,151l57,133l57-131L1069,151z"/>
		<path fill="#B2B2B2" stroke="#B2B2B2" d="M1183,153l-57,131l125-37L1183,153z"/>
		<path fill="#ADADAD" stroke="#ADADAD" d="M1183,153l68,94l40-42L1183,153z"/>
		<path fill="#A8A8A8" stroke="#A8A8A8" d="M1291,205l-40,42l79,24L1291,205z"/>
		<path fill="#A3A3A3" stroke="#A3A3A3" d="M1291,205l39,66l39-59L1291,205z"/>
		<path fill="#9B9B9B" stroke="#9B9B9B" d="M1369,212l-39,59l155,42L1369,212z"/>
		<path fill="#979797" stroke="#979797" d="M1369,212l116,101l-43-115L1369,212z"/>
		<path fill="#8E8E8E" stroke="#8E8E8E" d="M1442,198l43,115l92-55L1442,198z"/>
		<path fill="#8A8A8A" stroke="#8A8A8A" d="M1442,198l135,60l12-68L1442,198z"/>
		<path fill="#818181" stroke="#818181" d="M1589,190l-12,68l68,50L1589,190z"/>
		<path fill="#808080" stroke="#808080" d="M1589,190l56,118l5-160L1589,190z"/>
		<path fill="#808080" stroke="#808080" d="M1650,148l-5,160l123-8L1650,148z"/>
		<path fill="#808080" stroke="#808080" d="M1650,148l118,152l21-142L1650,148z"/>
		<path fill="#777777" stroke="#777777" d="M1789,158l-21,142l-3,352L1789,158z"/>
		<path fill="#4B4B4B" stroke="#4B4B4B" d="M1789,158l-24,494l25,233L1789,158z"/>
		<path fill="#FFFFFF" stroke="#FFFFFF" d="M164,252l-34,101l134-78L164,252z"/>
		<path fill="#FAFAFA" stroke="#FAFAFA" d="M264,275l-134,78l159,52L264,275z"/>
		<path fill="#F6F6F6" stroke="#F6F6F6" d="M264,275l25,130l79-34L264,275z"/>
		<path fill="#FAFAFA" stroke="#FAFAFA" d="M264,275l104,96l18-122L264,275z"/>
		<path fill="#F7F7F7" stroke="#F7F7F7" d="M386,249l-18,122l79-63L386,249z"/>
		<path fill="#EEEEEE" stroke="#EEEEEE" d="M447,308l-79,63l118,34L447,308z"/>
		<path fill="#EDEDED" stroke="#EDEDED" d="M447,308l39,97l87-104L447,308z"/>
		<path fill="#E5E5E5" stroke="#E5E5E5" d="M573,301l-87,104l93-5L573,301z"/>
		<path fill="#E1E1E1" stroke="#E1E1E1" d="M573,301l6,99l71,4L573,301z"/>
		<path fill="#E6E6E6" stroke="#E6E6E6" d="M573,301l77,103l4-130L573,301z"/>
		<path fill="#DBDBDB" stroke="#DBDBDB" d="M654,274l-4,130l146-13L654,274z"/>
		<path fill="#DFDFDF" stroke="#DFDFDF" d="M654,274l142,117l-21-123L654,274z"/>
		<path fill="#D5D5D5" stroke="#D5D5D5" d="M775,268l21,123l24-20L775,268z"/>
		<path fill="#D5D5D5" stroke="#D5D5D5" d="M775,268l45,103l73-58L775,268z"/>
		<path fill="#C8C8C8" stroke="#C8C8C8" d="M893,313l-73,58l131,22L893,313z"/>
		<path fill="#C5C5C5" stroke="#C5C5C5" d="M893,313l58,80l75-91L893,313z"/>
		<path fill="#C8C8C8" stroke="#C8C8C8" d="M893,313l133-11l-86-49L893,313z"/>
		<path fill="#BBBBBB" stroke="#BBBBBB" d="M1026,302l-75,91l71,29L1026,302z"/>
		<path fill="#BBBBBB" stroke="#BBBBBB" d="M1026,302l-4,120l104-138L1026,302z"/>
		<path fill="#B0B0B0" stroke="#B0B0B0" d="M1126,284l-104,138l166-9L1126,284z"/>
		<path fill="#AAAAAA" stroke="#AAAAAA" d="M1126,284l62,129l74-25L1126,284z"/>
		<path fill="#B0B0B0" stroke="#B0B0B0" d="M1126,284l136,104l-11-141L1126,284z"/>
		<path fill="#A9A9A9" stroke="#A9A9A9" d="M1251,247l11,141l68-117L1251,247z"/>
		<path fill="#9F9F9F" stroke="#9F9F9F" d="M1330,271l-68,117l91,16L1330,271z"/>
		<path fill="#9A9A9A" stroke="#9A9A9A" d="M1330,271l23,133l132-91L1330,271z"/>
		<path fill="#8D8D8D" stroke="#8D8D8D" d="M1485,313l-132,91l132-7V313z"/>
		<path fill="#868686" stroke="#868686" d="M1485,313v84l106-52L1485,313z"/>
		<path fill="#888888" stroke="#888888" d="M1485,313l106,32l-14-87L1485,313z"/>
		<path fill="#818181" stroke="#818181" d="M1577,258l14,87l54-37L1577,258z"/>
		<path fill="#7D7D7D" stroke="#7D7D7D" d="M1645,308l-54,37h39L1645,308z"/>
		<path fill="#7C7C7C" stroke="#7C7C7C" d="M1645,308l-15,37l111,23L1645,308z"/>
		<path fill="#7E7E7E" stroke="#7E7E7E" d="M1645,308l96,60l27-68L1645,308z"/>
		<path fill="#717171" stroke="#717171" d="M1768,300l-27,68l13,180L1768,300z"/>
		<path fill="#5A5A5A" stroke="#5A5A5A" d="M1768,300l-14,248l11,104L1768,300z"/>
		<path fill="#E2E2E2" stroke="#E2E2E2" d="M130,353l-7,221l31-98L130,353z"/>
		<path fill="#F0F0F0" stroke="#F0F0F0" d="M130,353l24,123l135-71L130,353z"/>
		<path fill="#E5E5E5" stroke="#E5E5E5" d="M289,405l-135,71l130-17L289,405z"/>
		<path fill="#E0E0E0" stroke="#E0E0E0" d="M289,405l-5,54l70,48L289,405z"/>
		<path fill="#E6E6E6" stroke="#E6E6E6" d="M289,405l65,102l14-136L289,405z"/>
		<path fill="#DEDEDE" stroke="#DEDEDE" d="M368,371l-14,136l91-23L368,371z"/>
		<path fill="#E3E3E3" stroke="#E3E3E3" d="M368,371l77,113l41-79L368,371z"/>
		<path fill="#D6D6D6" stroke="#D6D6D6" d="M486,405l-41,79h126L486,405z"/>
		<path fill="#DADADA" stroke="#DADADA" d="M486,405l85,79l8-84L486,405z"/>
		<path fill="#D1D1D1" stroke="#D1D1D1" d="M579,400l-8,84l88-21L579,400z"/>
		<path fill="#D5D5D5" stroke="#D5D5D5" d="M579,400l80,63l-9-59L579,400z"/>
		<path fill="#CACACA" stroke="#CACACA" d="M650,404l9,59l117,12L650,404z"/>
		<path fill="#CCCCCC" stroke="#CCCCCC" d="M650,404l126,71l20-84L650,404z"/>
		<path fill="#BBBBBB" stroke="#BBBBBB" d="M796,391l-20,84l104,44L796,391z"/>
		<path fill="#B5B5B5" stroke="#B5B5B5" d="M796,391l84,128l42-40L796,391z"/>
		<path fill="#C4C4C4" stroke="#C4C4C4" d="M796,391l126,88L820,371L796,391z"/>
		<path fill="#BDBDBD" stroke="#BDBDBD" d="M820,371l102,108l29-86L820,371z"/>
		<path fill="#B3B3B3" stroke="#B3B3B3" d="M951,393l-29,86l100-57L951,393z"/>
		<path fill="#A6A6A6" stroke="#A6A6A6" d="M1022,422l-100,57l114,30L1022,422z"/>
		<path fill="#9C9C9C" stroke="#9C9C9C" d="M1022,422l14,87l145-17L1022,422z"/>
		<path fill="#A0A0A0" stroke="#A0A0A0" d="M1022,422l159,70l7-79L1022,422z"/>
		<path fill="#959595" stroke="#959595" d="M1188,413l-7,79l113-42L1188,413z"/>
		<path fill="#9B9B9B" stroke="#9B9B9B" d="M1188,413l106,37l-32-62L1188,413z"/>
		<path fill="#979797" stroke="#979797" d="M1262,388l32,62l59-46L1262,388z"/>
		<path fill="#8C8C8C" stroke="#8C8C8C" d="M1353,404l-59,46l39,31L1353,404z"/>
		<path fill="#868686" stroke="#868686" d="M1353,404l-20,77l89-26L1353,404z"/>
		<path fill="#878787" stroke="#878787" d="M1353,404l69,51l63-58L1353,404z"/>
		<path fill="#797979" stroke="#797979" d="M1485,397l-63,58l176-10L1485,397z"/>
		<path fill="#7A7A7A" stroke="#7A7A7A" d="M1485,397l113,48l-7-100L1485,397z"/>
		<path fill="#777777" stroke="#777777" d="M1591,345l7,100l32-100H1591z"/>
		<path fill="#6E6E6E" stroke="#6E6E6E" d="M1630,345l-32,100l64,22L1630,345z"/>
		<path fill="#737373" stroke="#737373" d="M1630,345l32,122l79-99L1630,345z"/>
		<path fill="#686868" stroke="#686868" d="M1741,368l-79,99l61,32L1741,368z"/>
		<path fill="#616161" stroke="#616161" d="M1741,368l-18,131l31,49L1741,368z"/>
		<path fill="#D1D1D1" stroke="#D1D1D1" d="M154,476l-31,98l157-12L154,476z"/>
		<path fill="#D8D8D8" stroke="#D8D8D8" d="M154,476l126,86l4-103L154,476z"/>
		<path fill="#D3D3D3" stroke="#D3D3D3" d="M284,459l-4,103l74-55L284,459z"/>
		<path fill="#C9C9C9" stroke="#C9C9C9" d="M354,507l-74,55l109,13L354,507z"/>
		<path fill="#CCCCCC" stroke="#CCCCCC" d="M354,507l35,68l56-91L354,507z"/>
		<path fill="#C4C4C4" stroke="#C4C4C4" d="M445,484l-56,91l85,14L445,484z"/>
		<path fill="#C7C7C7" stroke="#C7C7C7" d="M445,484l29,105l97-105H445z"/>
		<path fill="#BABABA" stroke="#BABABA" d="M571,484l-97,105l56,31L571,484z"/>
		<path fill="#B6B6B6" stroke="#B6B6B6" d="M571,484l-41,136l117-25L571,484z"/>
		<path fill="#BFBFBF" stroke="#BFBFBF" d="M571,484l76,111l12-132L571,484z"/>
		<path fill="#B3B3B3" stroke="#B3B3B3" d="M659,463l-12,132l132-28L659,463z"/>
		<path fill="#B9B9B9" stroke="#B9B9B9" d="M659,463l120,104l-3-92L659,463z"/>
		<path fill="#ADADAD" stroke="#ADADAD" d="M776,475l3,92l101-48L776,475z"/>
		<path fill="#A1A1A1" stroke="#A1A1A1" d="M880,519l-101,48l89,21L880,519z"/>
		<path fill="#9B9B9B" stroke="#9B9B9B" d="M880,519l-12,69l83-25L880,519z"/>
		<path fill="#A1A1A1" stroke="#A1A1A1" d="M880,519l71,44l-29-84L880,519z"/>
		<path fill="#9D9D9D" stroke="#9D9D9D" d="M922,479l29,84l85-54L922,479z"/>
		<path fill="#949494" stroke="#949494" d="M1036,509l-85,54l70-5L1036,509z"/>
		<path fill="#8C8C8C" stroke="#8C8C8C" d="M1036,509l-15,49l155,18L1036,509z"/>
		<path fill="#8C8C8C" stroke="#8C8C8C" d="M1036,509l140,67l5-84L1036,509z"/>
		<path fill="#808080" stroke="#808080" d="M1181,492l-5,84l111-21L1181,492z"/>
		<path fill="#868686" stroke="#868686" d="M1181,492l106,63l7-105L1181,492z"/>
		<path fill="#828282" stroke="#828282" d="M1294,450l-7,105l46-74L1294,450z"/>
		<path fill="#747474" stroke="#747474" d="M1333,481l-46,74l93,26L1333,481z"/>
		<path fill="#767676" stroke="#767676" d="M1333,481l47,100l42-126L1333,481z"/>
		<path fill="#686868" stroke="#686868" d="M1422,455l-42,126l82,8L1422,455z"/>
		<path fill="#6A6A6A" stroke="#6A6A6A" d="M1422,455l40,134l136-144L1422,455z"/>
		<path fill="#585858" stroke="#585858" d="M1598,445l-136,144l83,29L1598,445z"/>
		<path fill="#515151" stroke="#515151" d="M1598,445l-53,173l119-42L1598,445z"/>
		<path fill="#5B5B5B" stroke="#5B5B5B" d="M1598,445l66,131l-2-109L1598,445z"/>
		<path fill="#575757" stroke="#575757" d="M1662,467l2,109l59-77L1662,467z"/>
		<path fill="#515151" stroke="#515151" d="M1723,499l-59,77l90-28L1723,499z"/>
		<path fill="#939393" stroke="#939393" d="M123,574l53,432l-11-228L123,574z"/>
		<path fill="#B3B3B3" stroke="#B3B3B3" d="M123,574l42,204l25-108L123,574z"/>
		<path fill="#C2C2C2" stroke="#C2C2C2" d="M123,574l67,96l90-108L123,574z"/>
		<path fill="#B7B7B7" stroke="#B7B7B7" d="M280,562l-90,108l74,41L280,562z"/>
		<path fill="#B3B3B3" stroke="#B3B3B3" d="M280,562l-16,149l82-8L280,562z"/>
		<path fill="#BABABA" stroke="#BABABA" d="M280,562l66,141l43-128L280,562z"/>
		<path fill="#ADADAD" stroke="#ADADAD" d="M389,575l-43,128l108,15L389,575z"/>
		<path fill="#B2B2B2" stroke="#B2B2B2" d="M389,575l65,143l20-129L389,575z"/>
		<path fill="#ACACAC" stroke="#ACACAC" d="M474,589l-20,129l76-98L474,589z"/>
		<path fill="#A5A5A5" stroke="#A5A5A5" d="M530,620l-76,98l101-56L530,620z"/>
		<path fill="#AAAAAA" stroke="#AAAAAA" d="M530,620l25,42l92-67L530,620z"/>
		<path fill="#A0A0A0" stroke="#A0A0A0" d="M647,595l-92,67l102,53L647,595z"/>
		<path fill="#979797" stroke="#979797" d="M647,595l10,120l90-9L647,595z"/>
		<path fill="#9F9F9F" stroke="#9F9F9F" d="M647,595l100,111l32-139L647,595z"/>
		<path fill="#949494" stroke="#949494" d="M779,567l-32,139l88-47L779,567z"/>
		<path fill="#989898" stroke="#989898" d="M779,567l56,92l33-71L779,567z"/>
		<path fill="#8C8C8C" stroke="#8C8C8C" d="M868,588l-33,71l114-6L868,588z"/>
		<path fill="#8E8E8E" stroke="#8E8E8E" d="M868,588l81,65l2-90L868,588z"/>
		<path fill="#8C8C8C" stroke="#8C8C8C" d="M951,563l-2,90l72-95L951,563z"/>
		<path fill="#7F7F7F" stroke="#7F7F7F" d="M1021,558l-72,95l84,48L1021,558z"/>
		<path fill="#7D7D7D" stroke="#7D7D7D" d="M1021,558l12,143l143-125L1021,558z"/>
		<path fill="#6F6F6F" stroke="#6F6F6F" d="M1176,576l-143,125l138-17L1176,576z"/>
		<path fill="#6B6B6B" stroke="#6B6B6B" d="M1176,576l-5,108l110-28L1176,576z"/>
		<path fill="#717171" stroke="#717171" d="M1176,576l105,80l6-101L1176,576z"/>
		<path fill="#696969" stroke="#696969" d="M1287,555l-6,101l99-75L1287,555z"/>
		<path fill="#5B5B5B" stroke="#5B5B5B" d="M1380,581l-99,75l94,46L1380,581z"/>
		<path fill="#585858" stroke="#585858" d="M1380,581l-5,121l87-113L1380,581z"/>
		<path fill="#4F4F4F" stroke="#4F4F4F" d="M1462,589l-87,113l121-54L1462,589z"/>
		<path fill="#4E4E4E" stroke="#4E4E4E" d="M1462,589l34,59l49-30L1462,589z"/>
		<path fill="#3F3F3F" stroke="#3F3F3F" d="M1545,618l-49,30l91,75L1545,618z"/>
		<path fill="#393939" stroke="#393939" d="M1545,618l42,105l35-62L1545,618z"/>
		<path fill="#404040" stroke="#404040" d="M1545,618l77,43l42-85L1545,618z"/>
		<path fill="#3D3D3D" stroke="#3D3D3D" d="M1664,576l-42,85l143-9L1664,576z"/>
		<path fill="#454545" stroke="#454545" d="M1664,576l101,76l-11-104L1664,576z"/>
		<path fill="#A6A6A6" stroke="#A6A6A6" d="M190,670l-25,108l99-67L190,670z"/>
		<path fill="#9A9A9A" stroke="#9A9A9A" d="M264,711l-99,67l62,11L264,711z"/>
		<path fill="#979797" stroke="#979797" d="M264,711l-37,78l120,1L264,711z"/>
		<path fill="#9D9D9D" stroke="#9D9D9D" d="M264,711l83,79l-1-87L264,711z"/>
		<path fill="#9A9A9A" stroke="#9A9A9A" d="M346,703l1,87l107-72L346,703z"/>
		<path fill="#8D8D8D" stroke="#8D8D8D" d="M454,718l-107,72l134,16L454,718z"/>
		<path fill="#878787" stroke="#878787" d="M454,718l27,88l94-1L454,718z"/>
		<path fill="#939393" stroke="#939393" d="M454,718l121,87l-20-143L454,718z"/>
		<path fill="#8A8A8A" stroke="#8A8A8A" d="M555,662l20,143l66-38L555,662z"/>
		<path fill="#919191" stroke="#919191" d="M555,662l86,105l16-52L555,662z"/>
		<path fill="#828282" stroke="#828282" d="M657,715l-16,52l121-11L657,715z"/>
		<path fill="#868686" stroke="#868686" d="M657,715l105,41l-15-50L657,715z"/>
		<path fill="#868686" stroke="#868686" d="M747,706l15,50l73-97L747,706z"/>
		<path fill="#7A7A7A" stroke="#7A7A7A" d="M835,659l-73,97l103,22L835,659z"/>
		<path fill="#7E7E7E" stroke="#7E7E7E" d="M835,659l30,119l84-125L835,659z"/>
		<path fill="#6F6F6F" stroke="#6F6F6F" d="M949,653l-84,125l113-23L949,653z"/>
		<path fill="#717171" stroke="#717171" d="M949,653l29,102l55-54L949,653z"/>
		<path fill="#636363" stroke="#636363" d="M1033,701l-55,54l76,8L1033,701z"/>
		<path fill="#636363" stroke="#636363" d="M1033,701l21,62l117-79L1033,701z"/>
		<path fill="#535353" stroke="#535353" d="M1171,684l-117,79l131,57L1171,684z"/>
		<path fill="#494949" stroke="#494949" d="M1171,684l14,136l33,2L1171,684z"/>
		<path fill="#565656" stroke="#565656" d="M1171,684l47,138l63-166L1171,684z"/>
		<path fill="#4D4D4D" stroke="#4D4D4D" d="M1281,656l-63,166l157-120L1281,656z"/>
		<path fill="#393939" stroke="#393939" d="M1375,702l-157,120l155-1L1375,702z"/>
		<path fill="#343434" stroke="#343434" d="M1375,702l-2,119l56-32L1375,702z"/>
		<path fill="#3F3F3F" stroke="#3F3F3F" d="M1375,702l54,87l67-141L1375,702z"/>
		<path fill="#303030" stroke="#303030" d="M1496,648l-67,141l106,6L1496,648z"/>
		<path fill="#303030" stroke="#303030" d="M1496,648l39,147l52-72L1496,648z"/>
		<path fill="#171717" stroke="#171717" d="M1587,723l-52,72l43,65L1587,723z"/>
		<path fill="#101010" stroke="#101010" d="M1587,723l-9,137l106-51L1587,723z"/>
		<path fill="#242424" stroke="#242424" d="M1587,723l97,86l-62-148L1587,723z"/>
		<path fill="#2B2B2B" stroke="#2B2B2B" d="M1622,661l62,148l81-157L1622,661z"/>
		<path fill="#1B1B1B" stroke="#1B1B1B" d="M1765,652l-81,157l78,6L1765,652z"/>
		<path fill="#141414" stroke="#141414" d="M1765,652l-3,163l28,70L1765,652z"/>
		<path fill="#808080" stroke="#808080" d="M165,778l11,228l18-155L165,778z"/>
		<path fill="#8D8D8D" stroke="#8D8D8D" d="M165,778l29,73l33-62L165,778z"/>
		<path fill="#818181" stroke="#818181" d="M227,789l-33,62l102,34L227,789z"/>
		<path fill="#7E7E7E" stroke="#7E7E7E" d="M227,789l69,96l22-23L227,789z"/>
		<path fill="#878787" stroke="#878787" d="M227,789l91,73l29-72L227,789z"/>
		<path fill="#828282" stroke="#828282" d="M347,790l-29,72l163-56L347,790z"/>
		<path fill="#767676" stroke="#767676" d="M481,806l-163,56l167,45L481,806z"/>
		<path fill="#717171" stroke="#717171" d="M481,806l4,101l34-52L481,806z"/>
		<path fill="#787878" stroke="#787878" d="M481,806l38,49l56-50L481,806z"/>
		<path fill="#707070" stroke="#707070" d="M575,805l-56,50l140-10L575,805z"/>
		<path fill="#767676" stroke="#767676" d="M575,805l84,40l-18-78L575,805z"/>
		<path fill="#757575" stroke="#757575" d="M641,767l18,78l103-89L641,767z"/>
		<path fill="#676767" stroke="#676767" d="M762,756l-103,89l111,34L762,756z"/>
		<path fill="#606060" stroke="#606060" d="M762,756l8,123l85-24L762,756z"/>
		<path fill="#666666" stroke="#666666" d="M762,756l93,99l10-77L762,756z"/>
		<path fill="#535353" stroke="#535353" d="M865,778l-10,77l96,29L865,778z"/>
		<path fill="#585858" stroke="#585858" d="M865,778l86,106l27-129L865,778z"/>
		<path fill="#484848" stroke="#484848" d="M978,755l-27,129l96-8L978,755z"/>
		<path fill="#515151" stroke="#515151" d="M978,755l69,121l7-113L978,755z"/>
		<path fill="#444444" stroke="#444444" d="M1054,763l-7,113l138-56L1054,763z"/>
		<path fill="#373737" stroke="#373737" d="M1185,820l-138,56l139-3L1185,820z"/>
		<path fill="#353535" stroke="#353535" d="M1185,820l1,53l32-51L1185,820z"/>
		<path fill="#2F2F2F" stroke="#2F2F2F" d="M1218,822l-32,51l88,26L1218,822z"/>
		<path fill="#2A2A2A" stroke="#2A2A2A" d="M1218,822l56,77l99-78L1218,822z"/>
		<path fill="#232323" stroke="#232323" d="M1373,821l-99,78l100-13L1373,821z"/>
		<path fill="#1A1A1A" stroke="#1A1A1A" d="M1373,821l1,65l111-37L1373,821z"/>
		<path fill="#212121" stroke="#212121" d="M1373,821l112,28l-56-60L1373,821z"/>
		<path fill="#1D1D1D" stroke="#1D1D1D" d="M1429,789l56,60l50-54L1429,789z"/>
		<path fill="#101010" stroke="#101010" d="M1535,795l-50,54l93,11L1535,795z"/>
		<path fill="#040404" stroke="#040404" d="M1684,809l-106,51l116-12L1684,809z"/>
		<path fill="#080808" stroke="#080808" d="M1684,809l10,39l68-33L1684,809z"/>
		<path fill="#010101" stroke="#010101" d="M1762,815l-68,33l96,37L1762,815z"/>
		<path fill="#7F7F7F" stroke="#7F7F7F" d="M194,851l-18,155l120-121L194,851z"/>
		<path fill="#7E7E7E" stroke="#7E7E7E" d="M296,885l-120,121h114L296,885z"/>
		<path fill="#7B7B7B" stroke="#7B7B7B" d="M296,885l-6,121l72-16L296,885z"/>
		<path fill="#7B7B7B" stroke="#7B7B7B" d="M296,885l66,105l-44-128L296,885z"/>
		<path fill="#797979" stroke="#797979" d="M318,862l44,128l80-24L318,862z"/>
		<path fill="#777777" stroke="#777777" d="M318,862l124,104l43-59L318,862z"/>
		<path fill="#717171" stroke="#717171" d="M485,907l-43,59l156,20L485,907z"/>
		<path fill="#6F6F6F" stroke="#6F6F6F" d="M485,907l113,79l-79-131L485,907z"/>
		<path fill="#6B6B6B" stroke="#6B6B6B" d="M519,855l79,131l61-141L519,855z"/>
		<path fill="#686868" stroke="#686868" d="M659,845l-61,141l39-6L659,845z"/>
		<path fill="#636363" stroke="#636363" d="M659,845l-22,135l133-101L659,845z"/>
		<path fill="#616161" stroke="#616161" d="M770,879L637,980l100,26L770,879z"/>
		<path fill="#595959" stroke="#595959" d="M770,879l-33,127l156-7L770,879z"/>
		<path fill="#555555" stroke="#555555" d="M770,879l123,120l-38-144L770,879z"/>
		<path fill="#4E4E4E" stroke="#4E4E4E" d="M855,855l38,144l58-115L855,855z"/>
		<path fill="#494949" stroke="#494949" d="M951,884l-58,115l102-52L951,884z"/>
		<path fill="#444444" stroke="#444444" d="M951,884l44,63l52-71L951,884z"/>
		<path fill="#404040" stroke="#404040" d="M1047,876l-52,71l94,10L1047,876z"/>
		<path fill="#3A3A3A" stroke="#3A3A3A" d="M1047,876l42,81l97-84L1047,876z"/>
		<path fill="#353535" stroke="#353535" d="M1186,873l-97,84l109,26L1186,873z"/>
		<path fill="#2F2F2F" stroke="#2F2F2F" d="M1186,873l12,110l76-84L1186,873z"/>
		<path fill="#2C2C2C" stroke="#2C2C2C" d="M1274,899l-76,84l98,23L1274,899z"/>
		<path fill="#262626" stroke="#262626" d="M1274,899l22,107l78-120L1274,899z"/>
		<path fill="#222222" stroke="#222222" d="M1374,886l-78,120l76,13L1374,886z"/>
		<path fill="#1A1A1A" stroke="#1A1A1A" d="M1374,886l-2,133l112-48L1374,886z"/>
		<path fill="#151515" stroke="#151515" d="M1374,886l110,85l1-122L1374,886z"/>
		<path fill="#0D0D0D" stroke="#0D0D0D" d="M1485,849l-1,122l94-111L1485,849z"/>
		<path fill="#0B0B0B" stroke="#0B0B0B" d="M1578,860l-94,111l44,14L1578,860z"/>
		<path fill="#030303" stroke="#030303" d="M1578,860l-50,125l139-18L1578,860z"/>
		<path stroke="#000000" d="M1578,860l89,107l27-119L1578,860z"/>
		<path stroke="#000000" d="M1694,848l-27,119l123-82L1694,848z"/>
		<path stroke="#000000" d="M1790,885l-123,82l111,9L1790,885z"/>
		<path fill="#696969" stroke="#696969" d="M176,1006l1196,13l-1082-13H176z"/>
		<path fill="#595959" stroke="#595959" d="M290,1006l1082,13l-635-13H290z"/>
		<path fill="#6E6E6E" stroke="#6E6E6E" d="M290,1006h447l-139-20L290,1006z"/>
		<path fill="#767676" stroke="#767676" d="M290,1006l308-20l-236,4L290,1006z"/>
		<path fill="#737373" stroke="#737373" d="M362,990l236-4l-156-20L362,990z"/>
		<path fill="#666666" stroke="#666666" d="M598,986l139,20l-100-26L598,986z"/>
		<path fill="#444444" stroke="#444444" d="M737,1006l635,13l-479-20L737,1006z"/>
		<path fill="#323232" stroke="#323232" d="M893,999l479,20l-76-13L893,999z"/>
		<path fill="#383838" stroke="#383838" d="M893,999l403,7l-98-23L893,999z"/>
		<path fill="#3E3E3E" stroke="#3E3E3E" d="M893,999l305-16l-109-26L893,999z"/>
		<path fill="#454545" stroke="#454545" d="M893,999l196-42l-94-10L893,999z"/>
		<path fill="#070707" stroke="#070707" d="M1372,1019l406-43l-250,9L1372,1019z"/>
		<path fill="#131313" stroke="#131313" d="M1372,1019l156-34l-44-14L1372,1019z"/>
		<path stroke="#000000" d="M1528,985l250-9l-111-9L1528,985z"/>
	</g>
	<g opacity="0.6" filter="url(#noise)" enable-background="new    ">
		<rect x="208" y="134" width="1439" height="734"/>
	</g>
</g>
<g id="Layer_2">
	<rect x="208" y="134" opacity="0.43" fill="#FFFFFF" stroke="#000000" stroke-miterlimit="10" width="1439" height="734"/>
</g>
</svg>
