<?xml version="1.0" encoding="utf-8"?>
<!-- Generator: Adobe Illustrator 18.1.0, SVG Export Plug-In . SVG Version: 6.00 Build 0)  -->
<svg version="1.1" id="Layer_1" xmlns="http://www.w3.org/2000/svg" xmlns:xlink="http://www.w3.org/1999/xlink" x="0px" y="0px"
	 viewBox="400 -149 1440 778" enable-background="new 400 -149 1440 778" xml:space="preserve">
<g>
	<path fill="#EAEAEA" stroke="#EAEAEA" d="M279-230l-14,626l63-169L279-230z"/>
	<path fill="#F2F2F2" stroke="#F2F2F2" d="M279-230l49,457l46-175L279-230z"/>
	<path fill="#F8F8F8" stroke="#F8F8F8" d="M279-230l95,282l9-182L279-230z"/>
	<path fill="#FAFAFA" stroke="#FAFAFA" d="M279-230l104,100l54-139L279-230z"/>
	<path fill="#F6F6F6" stroke="#F6F6F6" d="M437-269l-54,139l114,74L437-269z"/>
	<path fill="#F1F1F1" stroke="#F1F1F1" d="M437-269l60,213l140-165L437-269z"/>
	<path fill="#EAEAEA" stroke="#EAEAEA" d="M437-269l200,48l278-43L437-269z"/>
	<path fill="#CDCDCD" stroke="#CDCDCD" d="M437-269l478,5l930,1L437-269z"/>
	<path fill="#ECECEC" stroke="#ECECEC" d="M637-221L497-56l187-60L637-221z"/>
	<path fill="#E8E8E8" stroke="#E8E8E8" d="M637-221l47,105l95-58L637-221z"/>
	<path fill="#E4E4E4" stroke="#E4E4E4" d="M637-221l142,47l136-90L637-221z"/>
	<path fill="#E3E3E3" stroke="#E3E3E3" d="M779-174l-95,58l125,39L779-174z"/>
	<path fill="#DEDEDE" stroke="#DEDEDE" d="M779-174l30,97l85,25L779-174z"/>
	<path fill="#DFDFDF" stroke="#DFDFDF" d="M779-174L894-52l21-212L779-174z"/>
	<path fill="#D8D8D8" stroke="#D8D8D8" d="M915-264L894-52l148-196L915-264z"/>
	<path fill="#CDCDCD" stroke="#CDCDCD" d="M915-264l127,16l208-5L915-264z"/>
	<path fill="#C1C1C1" stroke="#C1C1C1" d="M915-264l335,11l168-5L915-264z"/>
	<path fill="#AEAEAE" stroke="#AEAEAE" d="M915-264l503,6l427-5L915-264z"/>
	<path fill="#D1D1D1" stroke="#D1D1D1" d="M1042-248L894-52l210-38L1042-248z"/>
	<path fill="#C8C8C8" stroke="#C8C8C8" d="M1042-248l62,158l106-34L1042-248z"/>
	<path fill="#C3C3C3" stroke="#C3C3C3" d="M1042-248l168,124l40-129L1042-248z"/>
	<path fill="#B8B8B8" stroke="#B8B8B8" d="M1250-253l-40,129l206-1L1250-253z"/>
	<path fill="#B1B1B1" stroke="#B1B1B1" d="M1250-253l166,128l2-133L1250-253z"/>
	<path fill="#A7A7A7" stroke="#A7A7A7" d="M1418-258l-2,133l153-80L1418-258z"/>
	<path fill="#A1A1A1" stroke="#A1A1A1" d="M1418-258l151,53l57-38L1418-258z"/>
	<path fill="#989898" stroke="#989898" d="M1418-258l208,15l219-20L1418-258z"/>
	<path fill="#A2A2A2" stroke="#A2A2A2" d="M1569-205l-153,80l109,98L1569-205z"/>
	<path fill="#9B9B9B" stroke="#9B9B9B" d="M1569-205l-44,178l131-105L1569-205z"/>
	<path fill="#999999" stroke="#999999" d="M1569-205l87,73l-30-111L1569-205z"/>
	<path fill="#919191" stroke="#919191" d="M1626-243l30,111l189-131L1626-243z"/>
	<path fill="#8C8C8C" stroke="#8C8C8C" d="M1845-263l-189,131l115,84L1845-263z"/>
	<path fill="#828282" stroke="#828282" d="M1845-263l-74,215l149,5L1845-263z"/>
	<path fill="#808080" stroke="#808080" d="M1845-263l75,220l113-204L1845-263z"/>
	<path fill="#7C7C7C" stroke="#7C7C7C" d="M2033-247L1920-43l29,102L2033-247z"/>
	<path fill="#777777" stroke="#777777" d="M2033-247l-84,306l32,138L2033-247z"/>
	<path fill="#707070" stroke="#707070" d="M2033-247l-52,444l20,198L2033-247z"/>
	<path fill="#4F4F4F" stroke="#4F4F4F" d="M2033-247l-32,642l-5,281L2033-247z"/>
	<path fill="#F1F1F1" stroke="#F1F1F1" d="M383-130l-9,182L497-56L383-130z"/>
	<path fill="#EBEBEB" stroke="#EBEBEB" d="M497-56L374,52l137-13L497-56z"/>
	<path fill="#E9E9E9" stroke="#E9E9E9" d="M497-56l14,95l173-155L497-56z"/>
	<path fill="#E3E3E3" stroke="#E3E3E3" d="M684-116L511,39l148,70L684-116z"/>
	<path fill="#DDDDDD" stroke="#DDDDDD" d="M684-116l-25,225l62,11L684-116z"/>
	<path fill="#DFDFDF" stroke="#DFDFDF" d="M684-116l37,236l88-197L684-116z"/>
	<path fill="#DADADA" stroke="#DADADA" d="M809-77l-88,197L894-52L809-77z"/>
	<path fill="#D4D4D4" stroke="#D4D4D4" d="M894-52L721,120l239-64L894-52z"/>
	<path fill="#CDCDCD" stroke="#CDCDCD" d="M894-52l66,108l144-146L894-52z"/>
	<path fill="#C4C4C4" stroke="#C4C4C4" d="M1104-90L960,56l143,55L1104-90z"/>
	<path fill="#BABABA" stroke="#BABABA" d="M1104-90l-1,201l137,9L1104-90z"/>
	<path fill="#BBBBBB" stroke="#BBBBBB" d="M1104-90l136,210l-30-244L1104-90z"/>
	<path fill="#B0B0B0" stroke="#B0B0B0" d="M1210-124l30,244l124-80L1210-124z"/>
	<path fill="#B0B0B0" stroke="#B0B0B0" d="M1210-124l154,164l52-165L1210-124z"/>
	<path fill="#A4A4A4" stroke="#A4A4A4" d="M1416-125l-52,165l161-67L1416-125z"/>
	<path fill="#9D9D9D" stroke="#9D9D9D" d="M1525-27l-161,67l132,34L1525-27z"/>
	<path fill="#919191" stroke="#919191" d="M1525-27l-29,101l234,32L1525-27z"/>
	<path fill="#8B8B8B" stroke="#8B8B8B" d="M1525-27l205,133l41-154L1525-27z"/>
	<path fill="#929292" stroke="#929292" d="M1525-27l246-21l-115-84L1525-27z"/>
	<path fill="#808080" stroke="#808080" d="M1771-48l-41,154l67-32L1771-48z"/>
	<path fill="#7D7D7D" stroke="#7D7D7D" d="M1771-48l26,122l123-117L1771-48z"/>
	<path fill="#757575" stroke="#757575" d="M1920-43L1797,74l152-15L1920-43z"/>
	<path fill="#E0E0E0" stroke="#E0E0E0" d="M374,52l-46,175l88-21L374,52z"/>
	<path fill="#E7E7E7" stroke="#E7E7E7" d="M374,52l42,154l95-167L374,52z"/>
	<path fill="#DCDCDC" stroke="#DCDCDC" d="M511,39l-95,167l178-17L511,39z"/>
	<path fill="#DEDEDE" stroke="#DEDEDE" d="M511,39l83,150l65-80L511,39z"/>
	<path fill="#D5D5D5" stroke="#D5D5D5" d="M659,109l-65,80l127-69L659,109z"/>
	<path fill="#CBCBCB" stroke="#CBCBCB" d="M721,120l-127,69l180,33L721,120z"/>
	<path fill="#CECECE" stroke="#CECECE" d="M721,120l53,102L960,56L721,120z"/>
	<path fill="#AFB9BA" stroke="#9B9B9B" d="M960,56L774,222l194,35L960,56z"/>
	<path fill="#BBBBBB" stroke="#BBBBBB" d="M960,56l8,201l64-89L960,56z"/>
	<path fill="#C1C1C1" stroke="#C1C1C1" d="M960,56l72,112l71-57L960,56z"/>
	<path fill="#AAAAAA" stroke="#AAAAAA" d="M1103,111l-71,57l237,79L1103,111z"/>
	<path fill="#A7A7A7" stroke="#A7A7A7" d="M1103,111l166,136l-29-127L1103,111z"/>
	<path fill="#979797" stroke="#979797" d="M1240,120l29,127l159-47L1240,120z"/>
	<path fill="#A2A2A2" stroke="#A2A2A2" d="M1240,120l188,80l-64-160L1240,120z"/>
	<path fill="#9C9C9C" stroke="#9C9C9C" d="M1364,40l64,160l68-126L1364,40z"/>
	<path fill="#8E8E8E" stroke="#8E8E8E" d="M1496,74l-68,126l108-16L1496,74z"/>
	<path fill="#8A8A8A" stroke="#8A8A8A" d="M1496,74l40,110l194-78L1496,74z"/>
	<path fill="#7A7A7A" stroke="#7A7A7A" d="M1730,106l-194,78l186,27L1730,106z"/>
	<path fill="#7A7A7A" stroke="#7A7A7A" d="M1730,106l-8,105l75-137L1730,106z"/>
	<path fill="#6D6D6D" stroke="#6D6D6D" d="M1797,74l-75,137l70,56L1797,74z"/>
	<path fill="#666666" stroke="#666666" d="M1797,74l-5,193l189-70L1797,74z"/>
	<path fill="#717171" stroke="#717171" d="M1797,74l184,123l-32-138L1797,74z"/>
	<path fill="#BBBBBB" stroke="#BBBBBB" d="M328,227l-63,169l187,12L328,227z"/>
	<path fill="#C6C6C6" stroke="#C6C6C6" d="M328,227l124,181l-36-202L328,227z"/>
	<path fill="#C4C4C4" stroke="#C4C4C4" d="M416,206l36,202l142-219L416,206z"/>
	<path fill="#B2B2B2" stroke="#B2B2B2" d="M594,189L452,408l172,3L594,189z"/>
	<path fill="#B9B9B9" stroke="#B9B9B9" d="M594,189l30,222l150-189L594,189z"/>
	<path fill="#A8A8A8" stroke="#A8A8A8" d="M774,222L624,411l175-19L774,222z"/>
	<path fill="#A8A8A8" stroke="#A8A8A8" d="M774,222l25,170l72-48L774,222z"/>
	<path fill="#AEAEAE" stroke="#AEAEAE" d="M774,222l97,122l97-87L774,222z"/>
	<path fill="#9E9E9E" stroke="#9E9E9E" d="M968,257l-97,87l151-3L968,257z"/>
	<path fill="#A5A5A5" stroke="#A5A5A5" d="M968,257l54,84l10-173L968,257z"/>
	<path fill="#969696" stroke="#969696" d="M1032,168l-10,173l163,39L1032,168z"/>
	<path fill="#959595" stroke="#959595" d="M1032,168l153,212l84-133L1032,168z"/>
	<path fill="#818181" stroke="#818181" d="M1269,247l-84,133l169-63L1269,247z"/>
	<path fill="#858585" stroke="#858585" d="M1269,247l85,70l74-117L1269,247z"/>
	<path fill="#767676" stroke="#767676" d="M1428,200l-74,117l228,15L1428,200z"/>
	<path fill="#797979" stroke="#797979" d="M1428,200l154,132l-46-148L1428,200z"/>
	<path fill="#D4D4D4" stroke="#D4D4D4" d="M1536,184l46,148l140-121L1536,184z"/>
	<path fill="#5E5E5E" stroke="#5E5E5E" d="M1722,211l-140,121l125,30L1722,211z"/>
	<path fill="#5C5C5C" stroke="#5C5C5C" d="M1722,211l-15,151l85-95L1722,211z"/>
	<path fill="#4B4B4B" stroke="#4B4B4B" d="M1792,267l-85,95l68,68L1792,267z"/>
	<path fill="#3F3F3F" stroke="#3F3F3F" d="M1792,267l-17,163l226-35L1792,267z"/>
	<path fill="#4C4C4C" stroke="#4C4C4C" d="M1792,267l209,128l-20-198L1792,267z"/>
	<path fill="#989898" stroke="#989898" d="M265,396l8,248l94-113L265,396z"/>
	<path fill="#A6A6A6" stroke="#A6A6A6" d="M265,396l102,135l85-123L265,396z"/>
	<path fill="#9D9D9D" stroke="#9D9D9D" d="M452,408l-85,123l91-52L452,408z"/>
	<path fill="#A0A0A0" stroke="#A0A0A0" d="M452,408l6,71l166-68L452,408z"/>
	<path fill="#959595" stroke="#959595" d="M624,411l-166,68l214,35L624,411z"/>
	<path fill="#959595" stroke="#959595" d="M624,411l48,103l127-122L624,411z"/>
	<path fill="#8B8B8B" stroke="#8B8B8B" d="M799,392L672,514l105,8L799,392z"/>
	<path fill="#888888" stroke="#888888" d="M799,392l-22,130l98-18L799,392z"/>
	<path fill="#929292" stroke="#929292" d="M799,392l76,112l-4-160L799,392z"/>
	<path fill="#909090" stroke="#909090" d="M871,344l4,160l147-163L871,344z"/>
	<path fill="#808080" stroke="#808080" d="M1022,341L875,504l254-33L1022,341z"/>
	<path fill="#7F7F7F" stroke="#7F7F7F" d="M1022,341l107,130l56-91L1022,341z"/>
	<path fill="#6C6C6C" stroke="#6C6C6C" d="M1185,380l-56,91l150,23L1185,380z"/>
	<path fill="#6F6F6F" stroke="#6F6F6F" d="M1185,380l94,114l75-177L1185,380z"/>
	<path fill="#5B5B5B" stroke="#5B5B5B" d="M1354,317l-75,177l298,5L1354,317z"/>
	<path fill="#92A3A5" stroke="#5D5D5D" d="M1354,317l223,182l5-167L1354,317z"/>
	<path fill="#4E4E4E" stroke="#4E4E4E" d="M1582,332l-5,167l130-137L1582,332z"/>
	<path fill="#3E3E3E" stroke="#3E3E3E" d="M1707,362l-130,137l122,19L1707,362z"/>
	<path fill="#3C3C3C" stroke="#3C3C3C" d="M1707,362l-8,156l76-88L1707,362z"/>
	<path fill="#2D2D2D" stroke="#2D2D2D" d="M1775,430l-76,88l99,28L1775,430z"/>
	<path fill="#2C2C2C" stroke="#2C2C2C" d="M1775,430l23,116l203-151L1775,430z"/>
	<path fill="#212121" stroke="#212121" d="M2001,395l-203,151l195,7L2001,395z"/>
	<path fill="#181818" stroke="#181818" d="M2001,395l-8,158l3,123L2001,395z"/>
	<path fill="#7F7F7F" stroke="#7F7F7F" d="M367,531l-94,113l193,78L367,531z"/>
	<path fill="#878787" stroke="#878787" d="M367,531l99,191l-8-243L367,531z"/>
	<path fill="#787878" stroke="#787878" d="M458,479l8,243l133-26L458,479z"/>
	<path fill="#828282" stroke="#828282" d="M458,479l141,217l73-182L458,479z"/>
	<path fill="#797979" stroke="#797979" d="M672,514l-73,182l178-174L672,514z"/>
	<path fill="#6A6A6A" stroke="#6A6A6A" d="M777,522L599,696l235,4L777,522z"/>
	<path fill="#727272" stroke="#727272" d="M777,522l57,178l41-196L777,522z"/>
	<path fill="#656565" stroke="#656565" d="M875,504l-41,196l79-20L875,504z"/>
	<path fill="#606060" stroke="#606060" d="M875,504l38,176l190-33L875,504z"/>
	<path fill="#686868" stroke="#686868" d="M875,504l228,143l26-176L875,504z"/>
	<path fill="#5C5C5C" stroke="#5C5C5C" d="M1129,471l-26,176l176-153L1129,471z"/>
	<path fill="#4E4E4E" stroke="#4E4E4E" d="M1279,494l-176,153l222-64L1279,494z"/>
	<path fill="#4A4A4A" stroke="#4A4A4A" d="M1279,494l46,89l252-84L1279,494z"/>
	<path fill="#424242" stroke="#424242" d="M1325,583l-222,64l80,64L1325,583z"/>
	<path fill="#3B3B3B" stroke="#3B3B3B" d="M1325,583l-142,128l157-63L1325,583z"/>
	<path fill="#3D3D3D" stroke="#3D3D3D" d="M1325,583l15,65l237-149L1325,583z"/>
	<path fill="#2C2C2C" stroke="#2C2C2C" d="M1577,499l-237,149l192,88L1577,499z"/>
	<path fill="#1F1F1F" stroke="#1F1F1F" d="M1577,499l-45,237l94-27L1577,499z"/>
	<path fill="#292929" stroke="#292929" d="M1577,499l49,210l73-191L1577,499z"/>
	<path fill="#1F1F1F" stroke="#1F1F1F" d="M1699,518l-73,191l172-163L1699,518z"/>
	<path fill="#101010" stroke="#101010" d="M1798,546l-172,163l242-61L1798,546z"/>
	<path fill="#0F0F0F" stroke="#0F0F0F" d="M1798,546l70,102l125-95L1798,546z"/>
	<path fill="#060606" stroke="#060606" d="M1993,553l-125,95l128,28L1993,553z"/>
	<path fill="#7B7B7B" stroke="#7B7B7B" d="M273,644l42,180l151-102L273,644z"/>
	<path fill="#787878" stroke="#787878" d="M466,722L315,824l121-11L466,722z"/>
	<path fill="#737373" stroke="#737373" d="M466,722l-30,91l182,11L466,722z"/>
	<path fill="#707070" stroke="#707070" d="M466,722l152,102l-19-128L466,722z"/>
	<path fill="#696969" stroke="#696969" d="M599,696l19,128l216-124L599,696z"/>
	<path fill="#656565" stroke="#656565" d="M834,700L618,824l196,57L834,700z"/>
	<path fill="#5F5F5F" stroke="#5F5F5F" d="M834,700l-20,181l148-3L834,700z"/>
	<path fill="#5D5D5D" stroke="#5D5D5D" d="M834,700l128,178l-49-198L834,700z"/>
	<path fill="#555555" stroke="#555555" d="M913,680l49,198l103-73L913,680z"/>
	<path fill="#515151" stroke="#515151" d="M913,680l152,125l38-158L913,680z"/>
	<path fill="#494949" stroke="#494949" d="M1103,647l-38,158l118-94L1103,647z"/>
	<path fill="#444444" stroke="#444444" d="M1183,711l-118,94l184,73L1183,711z"/>
	<path fill="#3A3A3A" stroke="#3A3A3A" d="M1183,711l66,167l121-56L1183,711z"/>
	<path fill="#383838" stroke="#383838" d="M1183,711l187,111l-30-174L1183,711z"/>
	<path fill="#2D2D2D" stroke="#2D2D2D" d="M1340,648l30,174l162-86L1340,648z"/>
	<path fill="#252525" stroke="#252525" d="M1532,736l-162,86l214,26L1532,736z"/>
	<path fill="#1D1D1D" stroke="#1D1D1D" d="M1532,736l52,112l42-139L1532,736z"/>
	<path fill="#1A1A1A" stroke="#1A1A1A" d="M1626,709l-42,139l59,22L1626,709z"/>
	<path fill="#111111" stroke="#111111" d="M1626,709l17,161l207-41L1626,709z"/>
	<path fill="#0A0A0A" stroke="#0A0A0A" d="M1626,709l224,120l18-181L1626,709z"/>
	<path stroke="#000000" d="M1868,648l-18,181l146-153L1868,648z"/>
	<path stroke="#000000" d="M1996,676l-146,153l65,36L1996,676z"/>
	<path fill="#727272" stroke="#727272" d="M315,824l499,57l-378-68L315,824z"/>
	<path fill="#6C6C6C" stroke="#6C6C6C" d="M436,813l378,68l-196-57L436,813z"/>
	<path fill="#535353" stroke="#535353" d="M814,881l435-3H962L814,881z"/>
	<path fill="#4B4B4B" stroke="#4B4B4B" d="M962,878h287l-184-73L962,878z"/>
	<path fill="#1B1B1B" stroke="#1B1B1B" d="M1249,878l666-13l-272,5L1249,878z"/>
	<path fill="#252525" stroke="#252525" d="M1249,878l394-8l-59-22L1249,878z"/>
	<path fill="#2E2E2E" stroke="#2E2E2E" d="M1249,878l335-30l-214-26L1249,878z"/>
	<path fill="#080808" stroke="#080808" d="M1643,870l272-5l-65-36L1643,870z"/>
</g>
</svg>
