<?xml version="1.0" encoding="utf-8"?>
<!-- Generator: Adobe Illustrator 18.1.0, SVG Export Plug-In . SVG Version: 6.00 Build 0)  -->
<svg version="1.1" id="Layer_1" xmlns="http://www.w3.org/2000/svg" xmlns:xlink="http://www.w3.org/1999/xlink" x="0px" y="0px"
	 viewBox="0 0 320 320" enable-background="new 0 0 320 320" xml:space="preserve">
<g>
	<path fill="none" stroke="#8D88BE" stroke-width="30" stroke-miterlimit="10" d="M245.8,278.4c-17.6,5.8-28.5,3.2-35.2,0
		c-29.8-14.4-19.5-66.2-50.2-79c-13.1-5.4-29.4-2.2-32.6-1.6c-11.5,2.2-25.9,8.6-25.3,11.5c1.6,7.7,87,14.1,128-31.4
		c13.4-15,17.3-30.1,17.9-33.3c7.7-33-11.5-60.5-14.4-64.6c-24.6-34.2-72.6-42.6-107.8-31.4C95.4,58.6,64.6,87,69.8,105
		c2.6,9,13.4,15,22.7,15c14.4,0,29.4-15.4,32.6-39"/>
	<path fill="#FFFFFF" stroke="#8D88BE" stroke-width="30" stroke-miterlimit="10" d="M119,211.8c0,21.8,0,56,0,77.8"/>
</g>
</svg>
