<?xml version="1.0" encoding="utf-8"?>
<!-- Generator: Adobe Illustrator 18.1.0, SVG Export Plug-In . SVG Version: 6.00 Build 0)  -->
<svg version="1.1" id="Layer_1" xmlns="http://www.w3.org/2000/svg" xmlns:xlink="http://www.w3.org/1999/xlink" x="0px" y="0px"
	 viewBox="0 0 100 123.5" enable-background="new 0 0 100 123.5" xml:space="preserve">
<path fill="#FFFFFF" stroke="#FFFFFF" stroke-width="8" stroke-miterlimit="10" d="M81.8,104.3c-6.9,2.3-11.2,1.3-13.9,0
	c-11.8-5.7-7.7-26.1-19.8-31.2c-5.2-2.2-11.6-0.9-12.8-0.6c-4.5,0.9-10.2,3.3-9.9,4.6c0.6,3,34.4,5.5,50.5-12.4
	c5.3-5.9,6.8-11.9,7.1-13.2c3.1-13-4.5-23.9-5.6-25.4C67.7,12.6,48.7,9.3,34.8,13.7C22.6,17.7,10.5,28.9,12.5,36
	c1,3.5,5.3,5.9,8.9,5.9c5.7,0,11.6-6.1,12.9-15.3"/>
<path fill="#FFFFFF" stroke="#FFFFFF" stroke-width="8" stroke-miterlimit="10" d="M31.8,78c0,8.6,0,22.1,0,30.7"/>
</svg>
