<svg width="1439" height="734" xmlns="http://www.w3.org/2000/svg"><g><path d="M-41,-35L-87,81L71,-10Z" fill="#f9f7fb" stroke="#f9f7fb"/><path d="M-41,-35L71,-10L171,-77Z" fill="#f2f2f8" stroke="#f2f2f8"/><path d="M71,-10L-87,81L89,25Z" fill="#f3f4fa" stroke="#f3f4fa"/><path d="M71,-10L89,25L171,-77Z" fill="#eef0f7" stroke="#eef0f7"/><path d="M171,-77L89,25L160,63Z" fill="#ebeef6" stroke="#ebeef6"/><path d="M171,-77L160,63L212,76Z" fill="#e6eaf4" stroke="#e6eaf4"/><path d="M171,-77L212,76L286,-14Z" fill="#e4e8f3" stroke="#e4e8f3"/><path d="M171,-77L286,-14L372,-28Z" fill="#dfe5f1" stroke="#dfe5f1"/><path d="M171,-77L372,-28L472,-48Z" fill="#d8e1ef" stroke="#d8e1ef"/><path d="M171,-77L472,-48L579,-54Z" fill="#cfdeed" stroke="#cfdeed"/><path d="M171,-77L579,-54L916,-87Z" fill="#bcd5e8" stroke="#bcd5e8"/><path d="M286,-14L212,76L247,115Z" fill="#dce4f2" stroke="#dce4f2"/><path d="M286,-14L247,115L372,23Z" fill="#d8e1f0" stroke="#d8e1f0"/><path d="M286,-14L372,23L372,-28Z" fill="#d7e1ef" stroke="#d7e1ef"/><path d="M372,-28L372,23L421,13Z" fill="#d1dfed" stroke="#d1dfed"/><path d="M372,-28L421,13L472,-48Z" fill="#cdddec" stroke="#cdddec"/><path d="M472,-48L421,13L569,38Z" fill="#c5d9ea" stroke="#c5d9ea"/><path d="M472,-48L569,38L579,-54Z" fill="#bed6e8" stroke="#bed6e8"/><path d="M579,-54L569,38L630,-12Z" fill="#b8d3e7" stroke="#b8d3e7"/><path d="M579,-54L630,-12L724,-14Z" fill="#b1d1e5" stroke="#b1d1e5"/><path d="M579,-54L724,-14L916,-87Z" fill="#a5cce2" stroke="#a5cce2"/><path d="M630,-12L569,38L680,79Z" fill="#b0d0e6" stroke="#b0d0e6"/><path d="M630,-12L680,79L724,-14Z" fill="#abcee4" stroke="#abcee4"/><path d="M724,-14L680,79L768,64Z" fill="#a2cbe3" stroke="#a2cbe3"/><path d="M724,-14L768,64L850,11Z" fill="#9ec9e1" stroke="#9ec9e1"/><path d="M724,-14L850,11L872,-21Z" fill="#9bc8e0" stroke="#9bc8e0"/><path d="M724,-14L872,-21L916,-87Z" fill="#99c7e0" stroke="#99c7e0"/><path d="M872,-21L850,11L931,60Z" fill="#92c3dd" stroke="#92c3dd"/><path d="M872,-21L931,60L916,-87Z" fill="#92c2db" stroke="#92c2db"/><path d="M916,-87L931,60L1082,-80Z" fill="#8ebcd5" stroke="#8ebcd5"/><path d="M916,-87L1082,-80L1357,-86Z" fill="#84b0c9" stroke="#84b0c9"/><path d="M1082,-80L931,60L1080,84Z" fill="#88b6d0" stroke="#88b6d0"/><path d="M1082,-80L1080,84L1147,41Z" fill="#84b0ca" stroke="#84b0ca"/><path d="M1082,-80L1147,41L1149,-46Z" fill="#83afc8" stroke="#83afc8"/><path d="M1082,-80L1149,-46L1218,-62Z" fill="#82adc6" stroke="#82adc6"/><path d="M1082,-80L1218,-62L1357,-86Z" fill="#80a7c0" stroke="#80a7c0"/><path d="M1149,-46L1147,41L1219,38Z" fill="#7faac5" stroke="#7faac5"/><path d="M1149,-46L1219,38L1218,-62Z" fill="#80a9c2" stroke="#80a9c2"/><path d="M1218,-62L1219,38L1357,-86Z" fill="#80a3bd" stroke="#80a3bd"/><path d="M1357,-86L1219,38L1361,59Z" fill="#7f9fb9" stroke="#7f9fb9"/><path d="M1357,-86L1361,59L1413,-25Z" fill="#8099b3" stroke="#8099b3"/><path d="M1357,-86L1413,-25L1570,-66Z" fill="#8093ad" stroke="#8093ad"/><path d="M1413,-25L1361,59L1459,46Z" fill="#7d95b0" stroke="#7d95b0"/><path d="M1413,-25L1459,46L1570,-66Z" fill="#8090aa" stroke="#8090aa"/><path d="M1570,-66L1459,46L1548,68Z" fill="#7e8ba6" stroke="#7e8ba6"/><path d="M1570,-66L1548,68L1577,187Z" fill="#7986a3" stroke="#7986a3"/><path d="M-87,81L-90,670L-47,387Z" fill="#abd7f3" stroke="#abd7f3"/><path d="M-87,81L-47,387L-40,219Z" fill="#d6e8fb" stroke="#d6e8fb"/><path d="M-87,81L-40,219L-38,166Z" fill="#ecf2fd" stroke="#ecf2fd"/><path d="M-87,81L-38,166L36,160Z" fill="#edf2fc" stroke="#edf2fc"/><path d="M-87,81L36,160L89,25Z" fill="#eef1fa" stroke="#eef1fa"/><path d="M89,25L36,160L139,140Z" fill="#e5ecf8" stroke="#e5ecf8"/><path d="M89,25L139,140L160,63Z" fill="#e5eaf6" stroke="#e5eaf6"/><path d="M160,63L139,140L212,76Z" fill="#dfe7f5" stroke="#dfe7f5"/><path d="M212,76L139,140L247,115Z" fill="#dbe4f3" stroke="#dbe4f3"/><path d="M372,23L247,115L363,137Z" fill="#d0deef" stroke="#d0deef"/><path d="M372,23L363,137L421,13Z" fill="#ccdced" stroke="#ccdced"/><path d="M421,13L363,137L432,169Z" fill="#c4d8ed" stroke="#c4d8ed"/><path d="M421,13L432,169L569,38Z" fill="#bfd6ea" stroke="#bfd6ea"/><path d="M569,38L432,169L575,171Z" fill="#b3d1e9" stroke="#b3d1e9"/><path d="M569,38L575,171L653,162Z" fill="#aacde7" stroke="#aacde7"/><path d="M569,38L653,162L680,79Z" fill="#a9cce6" stroke="#a9cce6"/><path d="M680,79L653,162L767,162Z" fill="#9cc7e4" stroke="#9cc7e4"/><path d="M680,79L767,162L768,64Z" fill="#9bc7e2" stroke="#9bc7e2"/><path d="M768,64L767,162L839,149Z" fill="#91c3e1" stroke="#91c3e1"/><path d="M768,64L839,149L850,11Z" fill="#93c4e0" stroke="#93c4e0"/><path d="M850,11L839,149L931,60Z" fill="#8dc1de" stroke="#8dc1de"/><path d="M931,60L839,149L959,120Z" fill="#87bcdb" stroke="#87bcdb"/><path d="M931,60L959,120L1080,84Z" fill="#84b6d4" stroke="#84b6d4"/><path d="M1080,84L959,120L1068,158Z" fill="#7db1d0" stroke="#7db1d0"/><path d="M1080,84L1068,158L1119,173Z" fill="#78abcc" stroke="#78abcc"/><path d="M1080,84L1119,173L1147,41Z" fill="#7aabc9" stroke="#7aabc9"/><path d="M1147,41L1119,173L1219,38Z" fill="#79a7c5" stroke="#79a7c5"/><path d="M1219,38L1119,173L1283,111Z" fill="#75a2c1" stroke="#75a2c1"/><path d="M1219,38L1283,111L1361,59Z" fill="#799dbb" stroke="#799dbb"/><path d="M1361,59L1283,111L1312,189Z" fill="#7498b8" stroke="#7498b8"/><path d="M1361,59L1312,189L1442,157Z" fill="#7293b3" stroke="#7293b3"/><path d="M1361,59L1442,157L1459,46Z" fill="#7791af" stroke="#7791af"/><path d="M1459,46L1442,157L1548,68Z" fill="#778baa" stroke="#778baa"/><path d="M1548,68L1442,157L1577,187Z" fill="#7286a7" stroke="#7286a7"/><path d="M-38,166L-40,219L19,219Z" fill="#dbeafa" stroke="#dbeafa"/><path d="M-38,166L19,219L36,160Z" fill="#deeafa" stroke="#deeafa"/><path d="M36,160L19,219L117,225Z" fill="#d4e5f7" stroke="#d4e5f7"/><path d="M36,160L117,225L139,140Z" fill="#d8e5f6" stroke="#d8e5f6"/><path d="M139,140L117,225L284,250Z" fill="#c8dcf3" stroke="#c8dcf3"/><path d="M139,140L284,250L247,115Z" fill="#cfdef2" stroke="#cfdef2"/><path d="M247,115L284,250L313,229Z" fill="#c1d6ef" stroke="#c1d6ef"/><path d="M247,115L313,229L363,137Z" fill="#c9daef" stroke="#c9daef"/><path d="M363,137L313,229L432,169Z" fill="#bbd4ed" stroke="#bbd4ed"/><path d="M432,169L313,229L468,242Z" fill="#adcdeb" stroke="#adcdeb"/><path d="M432,169L468,242L575,171Z" fill="#a7cbe8" stroke="#a7cbe8"/><path d="M575,171L468,242L582,250Z" fill="#99c5e6" stroke="#99c5e6"/><path d="M575,171L582,250L653,162Z" fill="#99c5e5" stroke="#99c5e5"/><path d="M653,162L582,250L669,271Z" fill="#8bbfe4" stroke="#8bbfe4"/><path d="M653,162L669,271L712,235Z" fill="#87bee2" stroke="#87bee2"/><path d="M653,162L712,235L767,162Z" fill="#8ec0e2" stroke="#8ec0e2"/><path d="M767,162L712,235L869,267Z" fill="#7ab8df" stroke="#7ab8df"/><path d="M767,162L869,267L839,149Z" fill="#7ebadf" stroke="#7ebadf"/><path d="M839,149L869,267L951,253Z" fill="#6eb2db" stroke="#6eb2db"/><path d="M839,149L951,253L959,120Z" fill="#7bb6da" stroke="#7bb6da"/><path d="M959,120L951,253L1021,235Z" fill="#6eadd4" stroke="#6eadd4"/><path d="M959,120L1021,235L1068,158Z" fill="#75aed1" stroke="#75aed1"/><path d="M1068,158L1021,235L1119,173Z" fill="#6ca7cc" stroke="#6ca7cc"/><path d="M1119,173L1021,235L1165,249Z" fill="#61a0c8" stroke="#61a0c8"/><path d="M1119,173L1165,249L1272,234Z" fill="#5b99c1" stroke="#5b99c1"/><path d="M1119,173L1272,234L1283,111Z" fill="#699bbf" stroke="#699bbf"/><path d="M1283,111L1272,234L1312,189Z" fill="#6895ba" stroke="#6895ba"/><path d="M1312,189L1272,234L1354,272Z" fill="#588cb6" stroke="#588cb6"/><path d="M1312,189L1354,272L1449,217Z" fill="#5988b1" stroke="#5988b1"/><path d="M1312,189L1449,217L1442,157Z" fill="#658ab0" stroke="#658ab0"/><path d="M1442,157L1449,217L1577,187Z" fill="#6582a8" stroke="#6582a8"/><path d="M1577,187L1449,217L1564,242Z" fill="#5c7ba4" stroke="#5c7ba4"/><path d="M1577,187L1564,242L1553,449Z" fill="#466e9f" stroke="#466e9f"/><path d="M1577,187L1553,449L1554,632Z" fill="#1f5f96" stroke="#1f5f96"/><path d="M-40,219L-47,387L19,219Z" fill="#c5e0f8" stroke="#c5e0f8"/><path d="M19,219L-47,387L88,317Z" fill="#b8d9f5" stroke="#b8d9f5"/><path d="M19,219L88,317L117,225Z" fill="#c3dcf5" stroke="#c3dcf5"/><path d="M117,225L88,317L171,343Z" fill="#b2d4f2" stroke="#b2d4f2"/><path d="M117,225L171,343L284,250Z" fill="#b3d2f0" stroke="#b3d2f0"/><path d="M284,250L171,343L276,330Z" fill="#a4cbed" stroke="#a4cbed"/><path d="M284,250L276,330L313,229Z" fill="#aacced" stroke="#aacced"/><path d="M313,229L276,330L368,363Z" fill="#9cc6ea" stroke="#9cc6ea"/><path d="M313,229L368,363L468,242Z" fill="#9cc6ea" stroke="#9cc6ea"/><path d="M468,242L368,363L477,321Z" fill="#8cbfe7" stroke="#8cbfe7"/><path d="M468,242L477,321L582,250Z" fill="#8ec0e6" stroke="#8ec0e6"/><path d="M582,250L477,321L534,341Z" fill="#82bbe4" stroke="#82bbe4"/><path d="M582,250L534,341L650,376Z" fill="#75b5e1" stroke="#75b5e1"/><path d="M582,250L650,376L669,271Z" fill="#76b6e1" stroke="#76b6e1"/><path d="M669,271L650,376L769,325Z" fill="#67b0de" stroke="#67b0de"/><path d="M669,271L769,325L712,235Z" fill="#72b4e0" stroke="#72b4e0"/><path d="M712,235L769,325L869,267Z" fill="#6ab1de" stroke="#6ab1de"/><path d="M869,267L769,325L815,326Z" fill="#5dacdb" stroke="#5dacdb"/><path d="M869,267L815,326L951,322Z" fill="#56a8d8" stroke="#56a8d8"/><path d="M869,267L951,322L951,253Z" fill="#5ba7d6" stroke="#5ba7d6"/><path d="M951,253L951,322L1021,235Z" fill="#5aa4d2" stroke="#5aa4d2"/><path d="M1021,235L951,322L1073,373Z" fill="#4b9ccd" stroke="#4b9ccd"/><path d="M1021,235L1073,373L1129,333Z" fill="#4696c7" stroke="#4696c7"/><path d="M1021,235L1129,333L1165,249Z" fill="#5199c7" stroke="#5199c7"/><path d="M1165,249L1129,333L1245,350Z" fill="#408dbf" stroke="#408dbf"/><path d="M1165,249L1245,350L1272,234Z" fill="#4a8dbc" stroke="#4a8dbc"/><path d="M1272,234L1245,350L1354,272Z" fill="#4887b6" stroke="#4887b6"/><path d="M1354,272L1245,350L1390,368Z" fill="#3a7eb1" stroke="#3a7eb1"/><path d="M1354,272L1390,368L1469,334Z" fill="#3c78ab" stroke="#3c78ab"/><path d="M1354,272L1469,334L1449,217Z" fill="#4b7dac" stroke="#4b7dac"/><path d="M1449,217L1469,334L1511,317Z" fill="#4776a7" stroke="#4776a7"/><path d="M1449,217L1511,317L1564,242Z" fill="#5077a5" stroke="#5077a5"/><path d="M1564,242L1511,317L1553,449Z" fill="#396b9e" stroke="#396b9e"/><path d="M-47,387L-90,670L-45,476Z" fill="#94c0e1" stroke="#94c0e1"/><path d="M-47,387L-45,476L88,449Z" fill="#93cbed" stroke="#93cbed"/><path d="M-47,387L88,449L88,317Z" fill="#9fceef" stroke="#9fceef"/><path d="M88,317L88,449L131,424Z" fill="#96c9ec" stroke="#96c9ec"/><path d="M88,317L131,424L171,343Z" fill="#9ecbee" stroke="#9ecbee"/><path d="M171,343L131,424L212,482Z" fill="#8ac3e8" stroke="#8ac3e8"/><path d="M171,343L212,482L276,330Z" fill="#8fc3e9" stroke="#8fc3e9"/><path d="M276,330L212,482L356,444Z" fill="#7fbbe4" stroke="#7fbbe4"/><path d="M276,330L356,444L368,363Z" fill="#84bde5" stroke="#84bde5"/><path d="M368,363L356,444L458,463Z" fill="#70b4e0" stroke="#70b4e0"/><path d="M368,363L458,463L477,321Z" fill="#77b7e2" stroke="#77b7e2"/><path d="M477,321L458,463L532,424Z" fill="#6ab2de" stroke="#6ab2de"/><path d="M477,321L532,424L534,341Z" fill="#73b5e1" stroke="#73b5e1"/><path d="M534,341L532,424L650,376Z" fill="#66afdd" stroke="#66afdd"/><path d="M650,376L532,424L690,462Z" fill="#54a8d9" stroke="#54a8d9"/><path d="M650,376L690,462L782,431Z" fill="#48a4d6" stroke="#48a4d6"/><path d="M650,376L782,431L769,325Z" fill="#52a8d9" stroke="#52a8d9"/><path d="M769,325L782,431L815,326Z" fill="#50a7d8" stroke="#50a7d8"/><path d="M815,326L782,431L821,447Z" fill="#42a1d5" stroke="#42a1d5"/><path d="M815,326L821,447L951,322Z" fill="#46a2d6" stroke="#46a2d6"/><path d="M951,322L821,447L958,469Z" fill="#3499cf" stroke="#3499cf"/><path d="M951,322L958,469L1073,373Z" fill="#3694c9" stroke="#3694c9"/><path d="M1073,373L958,469L1044,461Z" fill="#268cc3" stroke="#268cc3"/><path d="M1073,373L1044,461L1171,464Z" fill="#2287bd" stroke="#2287bd"/><path d="M1073,373L1171,464L1129,333Z" fill="#2d89be" stroke="#2d89be"/><path d="M1129,333L1171,464L1245,350Z" fill="#2b85ba" stroke="#2b85ba"/><path d="M1245,350L1171,464L1269,436Z" fill="#217db3" stroke="#217db3"/><path d="M1245,350L1269,436L1390,368Z" fill="#2a7aaf" stroke="#2a7aaf"/><path d="M1390,368L1269,436L1371,439Z" fill="#2173aa" stroke="#2173aa"/><path d="M1390,368L1371,439L1430,447Z" fill="#206ea5" stroke="#206ea5"/><path d="M1390,368L1430,447L1469,334Z" fill="#2b6fa5" stroke="#2b6fa5"/><path d="M1469,334L1430,447L1553,449Z" fill="#23679e" stroke="#23679e"/><path d="M1469,334L1553,449L1511,317Z" fill="#306a9f" stroke="#306a9f"/><path d="M-45,476L-90,670L-50,570Z" fill="#91b4d4" stroke="#91b4d4"/><path d="M-45,476L-50,570L89,546Z" fill="#8db8db" stroke="#8db8db"/><path d="M-45,476L89,546L88,449Z" fill="#8cbee1" stroke="#8cbee1"/><path d="M88,449L89,546L127,532Z" fill="#86b6db" stroke="#86b6db"/><path d="M88,449L127,532L131,424Z" fill="#86bee3" stroke="#86bee3"/><path d="M131,424L127,532L212,482Z" fill="#82b9df" stroke="#82b9df"/><path d="M212,482L127,532L259,512Z" fill="#7db0d8" stroke="#7db0d8"/><path d="M212,482L259,512L356,444Z" fill="#77b1db" stroke="#77b1db"/><path d="M356,444L259,512L355,525Z" fill="#71abd7" stroke="#71abd7"/><path d="M356,444L355,525L458,463Z" fill="#69abd8" stroke="#69abd8"/><path d="M458,463L355,525L482,529Z" fill="#63a3d1" stroke="#63a3d1"/><path d="M458,463L482,529L532,424Z" fill="#5da6d5" stroke="#5da6d5"/><path d="M532,424L482,529L567,575Z" fill="#569dcd" stroke="#569dcd"/><path d="M532,424L567,575L690,462Z" fill="#4f9ecf" stroke="#4f9ecf"/><path d="M690,462L567,575L680,588Z" fill="#4590c3" stroke="#4590c3"/><path d="M690,462L680,588L713,589Z" fill="#3f8dc0" stroke="#3f8dc0"/><path d="M690,462L713,589L782,431Z" fill="#3d96ca" stroke="#3d96ca"/><path d="M782,431L713,589L821,447Z" fill="#3894c9" stroke="#3894c9"/><path d="M821,447L713,589L856,589Z" fill="#3289be" stroke="#3289be"/><path d="M821,447L856,589L932,511Z" fill="#2b8ac1" stroke="#2b8ac1"/><path d="M821,447L932,511L958,469Z" fill="#2b8fc6" stroke="#2b8fc6"/><path d="M958,469L932,511L1013,544Z" fill="#2583ba" stroke="#2583ba"/><path d="M958,469L1013,544L1044,461Z" fill="#2383bb" stroke="#2383bb"/><path d="M1044,461L1013,544L1170,544Z" fill="#1d78af" stroke="#1d78af"/><path d="M1044,461L1170,544L1171,464Z" fill="#1b79b0" stroke="#1b79b0"/><path d="M1171,464L1170,544L1240,521Z" fill="#166fa7" stroke="#166fa7"/><path d="M1171,464L1240,521L1269,436Z" fill="#1873ab" stroke="#1873ab"/><path d="M1269,436L1240,521L1370,541Z" fill="#1768a0" stroke="#1768a0"/><path d="M1269,436L1370,541L1371,439Z" fill="#186aa2" stroke="#186aa2"/><path d="M1371,439L1370,541L1430,447Z" fill="#18659d" stroke="#18659d"/><path d="M1430,447L1370,541L1478,553Z" fill="#165a92" stroke="#165a92"/><path d="M1430,447L1478,553L1526,527Z" fill="#16568e" stroke="#16568e"/><path d="M1430,447L1526,527L1553,449Z" fill="#185b93" stroke="#185b93"/><path d="M1553,449L1526,527L1554,632Z" fill="#154b84" stroke="#154b84"/><path d="M-50,570L-90,670L45,652Z" fill="#8ba6c8" stroke="#8ba6c8"/><path d="M-50,570L45,652L89,546Z" fill="#88aace" stroke="#88aace"/><path d="M89,546L45,652L114,671Z" fill="#81a0c5" stroke="#81a0c5"/><path d="M89,546L114,671L127,532Z" fill="#80a7cc" stroke="#80a7cc"/><path d="M127,532L114,671L212,637Z" fill="#7b9ec4" stroke="#7b9ec4"/><path d="M127,532L212,637L259,512Z" fill="#7aa5cd" stroke="#7aa5cd"/><path d="M259,512L212,637L355,525Z" fill="#73a1cb" stroke="#73a1cb"/><path d="M355,525L212,637L376,687Z" fill="#6b93be" stroke="#6b93be"/><path d="M355,525L376,687L474,627Z" fill="#608ebc" stroke="#608ebc"/><path d="M355,525L474,627L482,529Z" fill="#5f97c6" stroke="#5f97c6"/><path d="M482,529L474,627L567,575Z" fill="#5590c0" stroke="#5590c0"/><path d="M567,575L474,627L556,673Z" fill="#4f85b6" stroke="#4f85b6"/><path d="M567,575L556,673L618,632Z" fill="#4982b4" stroke="#4982b4"/><path d="M567,575L618,632L680,588Z" fill="#4585b8" stroke="#4585b8"/><path d="M680,588L618,632L749,658Z" fill="#3c7db1" stroke="#3c7db1"/><path d="M680,588L749,658L713,589Z" fill="#397eb3" stroke="#397eb3"/><path d="M713,589L749,658L856,589Z" fill="#317bb1" stroke="#317bb1"/><path d="M856,589L749,658L848,659Z" fill="#2b74ab" stroke="#2b74ab"/><path d="M856,589L848,659L943,666Z" fill="#2370a8" stroke="#2370a8"/><path d="M856,589L943,666L932,511Z" fill="#2477af" stroke="#2477af"/><path d="M932,511L943,666L1013,544Z" fill="#2176ad" stroke="#2176ad"/><path d="M1013,544L943,666L1085,664Z" fill="#1b679f" stroke="#1b679f"/><path d="M1013,544L1085,664L1170,544Z" fill="#1869a1" stroke="#1869a1"/><path d="M1170,544L1085,664L1188,653Z" fill="#125c95" stroke="#125c95"/><path d="M1170,544L1188,653L1225,610Z" fill="#115c94" stroke="#115c94"/><path d="M1170,544L1225,610L1240,521Z" fill="#13639c" stroke="#13639c"/><path d="M1240,521L1225,610L1349,619Z" fill="#125992" stroke="#125992"/><path d="M1240,521L1349,619L1370,541Z" fill="#135a92" stroke="#135a92"/><path d="M1370,541L1349,619L1482,626Z" fill="#114c84" stroke="#114c84"/><path d="M1370,541L1482,626L1478,553Z" fill="#134c85" stroke="#134c85"/><path d="M1478,553L1482,626L1554,632Z" fill="#114179" stroke="#114179"/><path d="M1478,553L1554,632L1526,527Z" fill="#13467f" stroke="#13467f"/><path d="M-90,670L-87,827L-43,749Z" fill="#8890b1" stroke="#8890b1"/><path d="M-90,670L-43,749L45,652Z" fill="#879abc" stroke="#879abc"/><path d="M45,652L-43,749L68,711Z" fill="#8293b7" stroke="#8293b7"/><path d="M45,652L68,711L114,671Z" fill="#7e95ba" stroke="#7e95ba"/><path d="M114,671L68,711L174,763Z" fill="#798bb1" stroke="#798bb1"/><path d="M114,671L174,763L212,637Z" fill="#768db5" stroke="#768db5"/><path d="M212,637L174,763L246,785Z" fill="#7082ab" stroke="#7082ab"/><path d="M212,637L246,785L333,716Z" fill="#6b82ad" stroke="#6b82ad"/><path d="M212,637L333,716L376,687Z" fill="#6986b2" stroke="#6986b2"/><path d="M376,687L333,716L390,845Z" fill="#5d75a2" stroke="#5d75a2"/><path d="M376,687L390,845L479,728Z" fill="#57719f" stroke="#57719f"/><path d="M376,687L479,728L474,627Z" fill="#587fad" stroke="#587fad"/><path d="M474,627L479,728L556,673Z" fill="#507cac" stroke="#507cac"/><path d="M556,673L479,728L513,777Z" fill="#4c71a2" stroke="#4c71a2"/><path d="M556,673L513,777L638,778Z" fill="#446b9d" stroke="#446b9d"/><path d="M556,673L638,778L618,632Z" fill="#4273a5" stroke="#4273a5"/><path d="M618,632L638,778L723,765Z" fill="#3a6a9e" stroke="#3a6a9e"/><path d="M618,632L723,765L749,658Z" fill="#3770a5" stroke="#3770a5"/><path d="M749,658L723,765L813,765Z" fill="#2d649a" stroke="#2d649a"/><path d="M749,658L813,765L848,659Z" fill="#2969a0" stroke="#2969a0"/><path d="M848,659L813,765L969,743Z" fill="#1f5f97" stroke="#1f5f97"/><path d="M848,659L969,743L943,666Z" fill="#1e629a" stroke="#1e629a"/><path d="M943,666L969,743L1038,736Z" fill="#185790" stroke="#185790"/><path d="M943,666L1038,736L1085,664Z" fill="#175991" stroke="#175991"/><path d="M1085,664L1038,736L1153,760Z" fill="#114d85" stroke="#114d85"/><path d="M1085,664L1153,760L1188,653Z" fill="#0f4e87" stroke="#0f4e87"/><path d="M1188,653L1153,760L1223,721Z" fill="#0b467f" stroke="#0b467f"/><path d="M1188,653L1223,721L1225,610Z" fill="#0e4e87" stroke="#0e4e87"/><path d="M1225,610L1223,721L1349,619Z" fill="#0e4c85" stroke="#0e4c85"/><path d="M1349,619L1223,721L1315,768Z" fill="#0b3f77" stroke="#0b3f77"/><path d="M1349,619L1315,768L1470,759Z" fill="#0b356e" stroke="#0b356e"/><path d="M1349,619L1470,759L1482,626Z" fill="#0d3a73" stroke="#0d3a73"/><path d="M1482,626L1470,759L1534,736Z" fill="#0b2c65" stroke="#0b2c65"/><path d="M1482,626L1534,736L1554,632Z" fill="#0e326c" stroke="#0e326c"/><path d="M1554,632L1534,736L1530,858Z" fill="#09225b" stroke="#09225b"/><path d="M-43,749L-87,827L39,881Z" fill="#807fa2" stroke="#807fa2"/><path d="M-43,749L39,881L68,711Z" fill="#7e84a7" stroke="#7e84a7"/><path d="M68,711L39,881L135,815Z" fill="#777ca1" stroke="#777ca1"/><path d="M68,711L135,815L174,763Z" fill="#7581a7" stroke="#7581a7"/><path d="M174,763L135,815L246,785Z" fill="#6f78a0" stroke="#6f78a0"/><path d="M246,785L135,815L252,857Z" fill="#6b7099" stroke="#6b7099"/><path d="M246,785L252,857L390,845Z" fill="#626894" stroke="#626894"/><path d="M246,785L390,845L333,716Z" fill="#61709d" stroke="#61709d"/><path d="M479,728L390,845L433,859Z" fill="#526593" stroke="#526593"/><path d="M479,728L433,859L513,777Z" fill="#4e6796" stroke="#4e6796"/><path d="M513,777L433,859L567,858Z" fill="#475c8d" stroke="#475c8d"/><path d="M513,777L567,858L638,778Z" fill="#405e90" stroke="#405e90"/><path d="M638,778L567,858L632,887Z" fill="#395488" stroke="#395488"/><path d="M638,778L632,887L745,873Z" fill="#325085" stroke="#325085"/><path d="M638,778L745,873L723,765Z" fill="#30578c" stroke="#30578c"/><path d="M723,765L745,873L813,765Z" fill="#29558b" stroke="#29558b"/><path d="M813,765L745,873L886,853Z" fill="#204d84" stroke="#204d84"/><path d="M813,765L886,853L915,832Z" fill="#1a4c85" stroke="#1a4c85"/><path d="M813,765L915,832L969,743Z" fill="#1a518a" stroke="#1a518a"/><path d="M969,743L915,832L1036,854Z" fill="#14457d" stroke="#14457d"/><path d="M969,743L1036,854L1038,736Z" fill="#134880" stroke="#134880"/><path d="M1038,736L1036,854L1153,760Z" fill="#0e417a" stroke="#0e417a"/><path d="M1153,760L1036,854L1164,830Z" fill="#0a3770" stroke="#0a3770"/><path d="M1153,760L1164,830L1214,841Z" fill="#06336c" stroke="#06336c"/><path d="M1153,760L1214,841L1223,721Z" fill="#083971" stroke="#083971"/><path d="M1223,721L1214,841L1315,768Z" fill="#07346c" stroke="#07346c"/><path d="M1315,768L1214,841L1348,817Z" fill="#062962" stroke="#062962"/><path d="M1315,768L1348,817L1470,759Z" fill="#072860" stroke="#072860"/><path d="M1470,759L1348,817L1473,873Z" fill="#051c55" stroke="#051c55"/><path d="M1470,759L1473,873L1530,858Z" fill="#05144d" stroke="#05144d"/><path d="M1470,759L1530,858L1534,736Z" fill="#071b55" stroke="#071b55"/><path d="M39,881L632,887L252,857Z" fill="#5e648a" stroke="#5e648a"/><path d="M39,881L252,857L135,815Z" fill="#6f6e95" stroke="#6f6e95"/><path d="M252,857L632,887L433,859Z" fill="#4e5c88" stroke="#4e5c88"/><path d="M252,857L433,859L390,845Z" fill="#59618d" stroke="#59618d"/><path d="M433,859L632,887L567,858Z" fill="#405784" stroke="#405784"/><path d="M632,887L1473,873L745,873Z" fill="#113f71" stroke="#113f71"/><path d="M745,873L1473,873L1036,854Z" fill="#093368" stroke="#093368"/><path d="M745,873L1036,854L886,853Z" fill="#17447a" stroke="#17447a"/><path d="M886,853L1036,854L915,832Z" fill="#144078" stroke="#144078"/><path d="M1036,854L1473,873L1214,841Z" fill="#03255d" stroke="#03255d"/><path d="M1036,854L1214,841L1164,830Z" fill="#073069" stroke="#073069"/><path d="M1214,841L1473,873L1348,817Z" fill="#041d57" stroke="#041d57"/></g><filter id="noise"><feTurbulence type="fractalNoise" in="fillPaint" fill="#F00" baseFrequency="0.7" numOctaves="3" stitchTiles="stitch"/><feComponentTransfer><feFuncR type="linear" slope="2" intercept="-.5"/><feFuncG type="linear" slope="2" intercept="-.5"/><feFuncB type="linear" slope="2" intercept="-.5"/></feComponentTransfer><feColorMatrix type="matrix" values="0.3333 0.3333 0.3333 0 0 
 0.3333 0.3333 0.3333 0 0 
 0.3333 0.3333 0.3333 0 0 
 0 0 0 1 0"/></filter><rect opacity="0.6000000000000001" width="100%" height="100%" filter="url(#noise)"/></svg>