<?xml version="1.0" encoding="utf-8"?>
<!-- Generator: Adobe Illustrator 18.1.0, SVG Export Plug-In . SVG Version: 6.00 Build 0)  -->
<svg version="1.1" id="Layer_1" xmlns="http://www.w3.org/2000/svg" xmlns:xlink="http://www.w3.org/1999/xlink" x="0px" y="0px"
	 viewBox="0 0 100 100" enable-background="new 0 0 100 100" xml:space="preserve">
<g>
	<path fill="none" stroke="#BA6FF5" stroke-width="9" stroke-miterlimit="10" d="M76.8,87c-5.5,1.8-8.9,1-11,0
		c-9.3-4.5-6.1-20.7-15.7-24.7c-4.1-1.7-9.2-0.7-10.2-0.5c-3.6,0.7-8.1,2.7-7.9,3.6c0.5,2.4,27.2,4.4,40-9.8
		c4.2-4.7,5.4-9.4,5.6-10.4c2.4-10.3-3.6-18.9-4.5-20.2c-7.7-10.7-22.7-13.3-33.7-9.8c-9.6,3.1-19.2,12-17.6,17.6
		c0.8,2.8,4.2,4.7,7.1,4.7c4.5,0,9.2-4.8,10.2-12.2"/>
	<path fill="#FFFFFF" stroke="#BA6FF5" stroke-width="9" stroke-miterlimit="10" d="M37.2,66.2c0,6.8,0,17.5,0,24.3"/>
</g>
</svg>
