<svg xmlns="http://www.w3.org/2000/svg" viewBox="0 0 100 100"><defs><style>.cls-1,.cls-3{fill:none;}.cls-1,.cls-2,.cls-3{stroke:#544a53;stroke-miterlimit:10;}.cls-1,.cls-2{stroke-linecap:square;stroke-width:3px;}.cls-2{fill:#544a53;}.cls-3{stroke-linecap:round;stroke-width:2px;}</style></defs><title>rachelicon</title><g id="Layer_1" data-name="Layer 1"><circle class="cls-1" cx="49.63" cy="49.63" r="40"/><path class="cls-2" d="M81.5,45.5a50.88,50.88,0,0,1-28-10,47.84,47.84,0,0,1-9-9,41.51,41.51,0,0,0-18,9c-3.31,2.88-6.31,5.49-8,10-1.5,4-.17,4.68-1,18-.33,5.35-.49,6.07,0,8,1.34,5.29,4.73,6.72,7,11,1.49,2.82,2.8,7.45,1,15a22.66,22.66,0,0,1-9-1,24.46,24.46,0,0,1-6-3c-4.79-3.53-5.77-12-5-29,.71-15.73,1.07-23.6,3-29,2.11-5.89,6.48-18.33,19-26C46.68-2.25,68,6.42,72.5,9.5a41.75,41.75,0,0,1,9,9,45.05,45.05,0,0,1,8,17c1.58,7.14-.62,7.42,0,18,.35,6,1.3,9.1,4,29,.38,2.8.77,6-1,9-2.55,4.32-8,5.56-10,6a20.76,20.76,0,0,1-9,0,36.73,36.73,0,0,1,0-14c1.74-8.7,5.87-11.87,8-20A37.34,37.34,0,0,0,81.5,45.5Z"/></g><g id="Layer_2" data-name="Layer 2"><path class="cls-3" d="M41,76a10.94,10.94,0,0,0,16,1"/><path class="cls-3" d="M40,60a10.4,10.4,0,0,0-8-4,10.4,10.4,0,0,0-8,4"/><path class="cls-3" d="M74,60a10,10,0,0,0-16,0"/></g></svg>